<svg id="svg" version="1.1" xmlns="http://www.w3.org/2000/svg" xmlns:xlink="http://www.w3.org/1999/xlink" width="400" height="400" viewBox="0, 0, 400,400"><g id="svgg"><path id="path0" d="M182.400 14.419 C 180.530 14.617,178.370 14.968,177.600 15.199 C 176.830 15.430,174.940 15.865,173.400 16.166 C 171.860 16.467,170.060 16.903,169.400 17.136 C 168.740 17.369,166.850 17.948,165.200 18.422 C 155.075 21.330,145.461 26.898,137.975 34.188 C 134.911 37.172,133.780 38.604,130.542 43.600 C 129.409 45.349,127.318 50.962,126.519 54.400 C 125.022 60.842,121.657 68.829,119.107 71.994 C 118.608 72.612,117.390 74.262,116.400 75.659 C 110.024 84.658,100.050 90.639,85.000 94.485 C 76.030 96.777,63.998 101.463,60.067 104.195 C 59.113 104.858,57.853 105.656,57.267 105.970 C 54.334 107.536,48.211 114.915,45.541 120.100 C 40.256 130.364,38.815 148.399,42.619 156.660 C 42.939 157.354,43.200 158.397,43.200 158.979 C 43.200 159.560,43.623 160.459,44.140 160.976 C 44.657 161.493,46.157 164.140,47.474 166.858 C 50.628 173.368,54.750 178.757,58.738 181.584 C 62.690 184.387,65.749 185.753,72.200 187.598 C 74.853 188.357,89.629 187.375,92.400 186.257 C 92.926 186.044,104.420 184.800,105.856 184.800 C 106.286 184.800,106.400 185.850,106.400 189.794 C 106.400 192.541,106.578 195.556,106.795 196.494 C 107.012 197.432,107.369 203.870,107.587 210.800 C 107.861 219.488,108.151 223.835,108.519 224.800 C 109.179 226.526,109.970 228.374,110.443 229.295 C 110.639 229.677,110.800 230.608,110.800 231.364 C 110.800 232.247,111.158 233.164,111.800 233.927 C 112.970 235.317,113.007 235.714,112.185 238.042 C 111.847 239.001,111.319 241.139,111.012 242.793 C 110.706 244.447,109.977 247.600,109.392 249.800 C 108.808 252.000,108.066 255.060,107.743 256.600 C 107.420 258.140,106.876 260.377,106.535 261.570 C 106.194 262.764,105.829 265.194,105.725 266.970 C 105.621 268.747,105.453 270.459,105.351 270.776 C 105.233 271.146,99.758 265.951,90.071 256.276 C 79.482 245.700,74.716 241.200,74.107 241.200 C 73.629 241.200,72.779 240.991,72.219 240.736 C 69.056 239.295,63.837 242.678,62.845 246.812 C 61.673 251.698,60.741 250.523,85.306 275.143 C 97.238 287.102,106.785 296.969,106.522 297.069 C 102.276 298.692,96.489 304.303,94.011 309.200 C 92.156 312.866,92.007 313.040,89.767 314.134 C 88.490 314.757,86.938 315.657,86.318 316.134 C 82.673 318.936,80.446 320.942,79.286 322.470 C 78.564 323.421,77.422 324.920,76.748 325.800 C 71.576 332.558,68.438 348.532,70.462 357.800 C 70.701 358.893,70.565 359.102,68.941 360.145 C 66.261 361.866,60.606 367.382,59.333 369.517 C 58.716 370.553,58.028 371.691,57.805 372.048 C 57.582 372.404,57.059 373.304,56.643 374.048 C 55.097 376.809,52.361 380.800,52.013 380.800 C 51.816 380.800,51.552 381.115,51.428 381.500 C 50.998 382.831,48.472 385.200,47.482 385.200 C 44.667 385.200,33.456 395.555,32.650 398.900 L 32.385 400.000 47.365 400.000 C 61.805 400.000,62.355 399.972,62.591 399.229 C 62.955 398.080,71.802 387.200,72.372 387.200 C 72.523 387.200,74.408 385.222,76.559 382.805 C 80.980 377.840,80.460 377.951,84.143 381.180 C 90.946 387.144,103.408 390.101,112.027 387.795 C 117.315 386.381,117.078 385.819,114.392 393.400 C 113.534 395.820,112.716 398.295,112.573 398.900 L 112.313 400.000 204.957 400.000 C 255.910 400.000,297.588 399.865,297.573 399.700 C 297.558 399.535,296.390 397.780,294.978 395.800 C 290.475 389.489,290.207 388.954,290.967 387.794 C 291.325 387.247,291.986 386.800,292.435 386.800 C 293.181 386.800,294.437 386.352,298.994 384.461 C 299.870 384.098,301.992 382.866,303.710 381.724 L 306.832 379.649 308.516 380.797 C 309.442 381.428,314.241 386.007,319.179 390.972 L 328.159 400.000 343.879 400.000 C 352.526 400.000,359.600 399.882,359.600 399.738 C 359.600 399.353,357.895 397.181,354.353 393.054 C 352.628 391.045,350.777 388.860,350.239 388.200 C 349.702 387.540,347.968 385.470,346.387 383.600 C 344.805 381.730,342.910 379.480,342.174 378.600 C 341.438 377.720,339.028 374.889,336.818 372.310 C 334.608 369.730,332.800 367.517,332.800 367.392 C 332.800 367.206,326.664 359.905,323.701 356.565 C 321.343 353.907,321.200 353.571,321.200 350.692 C 321.200 345.102,319.629 338.010,317.800 335.347 C 317.064 334.276,315.598 331.810,314.543 329.867 C 313.487 327.923,312.289 326.155,311.880 325.936 C 311.471 325.717,310.836 325.293,310.468 324.993 C 308.638 323.502,303.062 319.159,302.642 318.898 C 301.768 318.354,300.400 315.573,300.400 314.339 C 300.400 313.115,299.297 310.800,298.714 310.800 C 297.567 310.800,302.008 306.192,333.222 274.999 C 368.525 239.720,369.600 238.561,369.600 235.784 C 369.600 229.994,364.739 225.960,359.263 227.204 L 357.000 227.719 321.797 262.859 C 288.995 295.603,285.894 298.579,285.533 297.660 C 285.104 296.563,281.500 295.000,275.200 293.177 C 274.210 292.890,273.220 292.538,273.000 292.394 C 272.780 292.249,271.610 291.848,270.400 291.501 C 269.190 291.155,265.770 290.150,262.800 289.268 C 259.830 288.386,256.680 287.536,255.800 287.379 C 254.920 287.222,253.748 286.865,253.195 286.585 C 252.642 286.306,251.022 285.854,249.595 285.581 C 243.668 284.446,239.612 280.465,242.300 278.422 C 242.905 277.963,243.940 277.127,244.600 276.566 C 245.260 276.004,248.003 273.712,250.695 271.472 C 253.388 269.233,257.196 266.050,259.158 264.400 C 263.909 260.405,263.648 260.288,265.414 267.200 C 268.058 277.548,275.978 281.100,282.537 274.878 C 285.177 272.373,286.255 263.398,284.424 259.164 C 284.195 258.634,283.743 256.490,283.420 254.400 C 282.866 250.822,282.278 247.612,280.340 237.600 C 279.327 232.365,279.327 232.338,280.344 227.000 C 280.805 224.580,281.380 221.520,281.623 220.200 C 281.866 218.880,282.400 216.180,282.810 214.200 C 283.220 212.220,283.666 208.724,283.801 206.431 C 283.936 204.137,284.193 201.977,284.371 201.631 C 284.550 201.284,284.998 198.030,285.366 194.400 C 286.311 185.068,286.354 184.958,289.149 184.615 C 292.597 184.191,293.266 184.235,301.200 185.404 C 319.993 188.174,326.462 186.706,335.644 177.589 C 341.072 172.199,342.160 170.402,344.230 163.400 C 344.555 162.300,345.005 161.074,345.229 160.675 C 345.454 160.277,345.975 158.927,346.388 157.675 C 346.801 156.424,347.629 154.140,348.227 152.600 C 350.038 147.939,351.361 138.500,350.465 136.637 C 350.244 136.177,349.960 134.792,349.835 133.561 C 349.710 132.329,349.336 130.551,349.004 129.610 C 348.672 128.669,348.400 127.134,348.400 126.199 C 348.400 122.614,343.853 114.662,339.034 109.822 C 333.012 103.772,325.951 99.999,314.000 96.444 C 312.350 95.953,310.460 95.365,309.800 95.137 C 309.140 94.908,307.925 94.559,307.100 94.361 C 303.291 93.445,302.448 93.213,300.200 92.465 C 292.274 89.828,283.026 84.377,279.254 80.119 C 272.981 73.037,267.834 64.089,266.353 57.691 C 264.977 51.746,264.905 51.478,263.896 48.505 C 263.355 46.912,262.437 44.891,261.856 44.013 C 261.275 43.135,260.800 42.324,260.800 42.210 C 260.800 41.620,257.526 37.444,255.034 34.856 C 248.792 28.372,237.602 21.681,228.200 18.812 C 226.000 18.140,223.390 17.321,222.400 16.992 C 221.410 16.662,219.160 16.116,217.400 15.777 C 215.640 15.438,213.390 14.981,212.400 14.761 C 210.006 14.228,186.714 13.962,182.400 14.419 M136.000 142.369 C 138.495 143.028,143.288 145.675,145.746 147.752 C 148.456 150.041,151.624 152.227,152.753 152.585 C 153.252 152.744,155.042 153.506,156.730 154.279 C 159.729 155.653,163.376 157.009,167.400 158.246 C 168.500 158.585,169.940 159.047,170.600 159.275 C 171.260 159.502,172.880 159.919,174.200 160.202 C 175.520 160.484,177.500 160.917,178.600 161.164 C 184.340 162.452,199.840 163.248,203.800 162.459 C 204.900 162.239,207.690 161.794,210.000 161.469 C 220.718 159.962,237.715 153.364,246.600 147.262 C 252.674 143.090,253.862 142.669,259.600 142.649 L 264.600 142.632 267.881 144.311 C 283.466 152.286,282.234 169.715,265.274 181.200 C 264.046 182.032,260.113 184.928,258.600 186.114 C 258.380 186.286,255.770 188.247,252.800 190.471 C 249.830 192.695,246.950 194.857,246.400 195.275 C 245.850 195.693,243.510 197.461,241.200 199.203 C 238.890 200.946,235.560 203.474,233.800 204.822 C 230.192 207.585,225.586 211.053,220.814 214.600 C 219.038 215.920,216.151 218.080,214.397 219.400 C 207.111 224.884,205.336 225.938,201.534 227.034 C 198.978 227.772,195.267 227.659,189.600 226.671 C 183.922 225.681,182.301 224.857,175.600 219.553 C 169.542 214.758,163.115 209.734,159.798 207.200 C 157.926 205.770,155.000 203.450,153.297 202.045 C 151.594 200.640,149.750 199.204,149.200 198.855 C 148.650 198.506,146.726 197.001,144.924 195.510 C 143.122 194.020,141.536 192.800,141.400 192.800 C 141.264 192.800,139.313 191.315,137.064 189.500 C 131.393 184.924,128.147 182.800,126.824 182.800 C 121.702 182.800,112.587 168.690,112.612 160.800 C 112.638 152.336,120.413 142.430,127.058 142.394 C 127.686 142.391,128.470 142.206,128.800 141.983 C 129.521 141.496,133.504 141.709,136.000 142.369 M131.628 255.850 C 132.284 256.977,134.750 260.049,137.110 262.676 C 139.469 265.303,141.760 267.954,142.200 268.568 C 142.640 269.181,144.307 271.329,145.905 273.341 C 148.886 277.096,149.145 277.790,147.855 278.557 C 146.857 279.150,141.516 284.364,140.732 285.511 C 140.123 286.402,139.782 286.516,130.800 288.834 C 129.810 289.089,128.156 289.546,127.125 289.849 C 126.094 290.152,125.011 290.400,124.720 290.400 C 124.040 290.400,111.487 277.847,111.827 277.507 C 111.967 277.366,112.525 277.420,113.067 277.626 C 117.470 279.300,123.253 275.040,124.553 269.165 C 124.865 267.754,125.504 265.160,125.972 263.400 C 126.440 261.640,127.174 258.524,127.604 256.475 C 128.735 251.071,128.841 251.055,131.628 255.850 " stroke="none" fill="#3cccfb" fill-rule="evenodd"></path><path id="path1" d="M0.000 200.000 L 0.000 400.000 16.210 400.000 L 32.420 400.000 32.641 398.894 C 33.321 395.494,44.044 385.823,48.012 385.031 C 48.596 384.914,49.528 384.132,50.212 383.183 C 50.866 382.278,51.774 381.146,52.232 380.669 C 53.089 379.774,55.314 376.436,56.646 374.048 C 57.061 373.304,57.582 372.404,57.805 372.048 C 58.028 371.691,58.716 370.553,59.333 369.517 C 60.606 367.382,66.261 361.866,68.941 360.145 C 70.565 359.102,70.701 358.893,70.462 357.800 C 68.438 348.532,71.576 332.558,76.748 325.800 C 77.422 324.920,78.564 323.421,79.286 322.470 C 80.446 320.942,82.673 318.936,86.318 316.134 C 86.938 315.657,88.490 314.757,89.767 314.134 C 92.007 313.040,92.156 312.866,94.011 309.200 C 96.489 304.303,102.276 298.692,106.522 297.069 C 106.785 296.969,97.238 287.102,85.306 275.143 C 60.741 250.523,61.673 251.698,62.845 246.812 C 63.837 242.678,69.056 239.295,72.219 240.736 C 72.779 240.991,73.629 241.200,74.107 241.200 C 74.716 241.200,79.482 245.700,90.071 256.276 C 99.758 265.951,105.233 271.146,105.351 270.776 C 105.453 270.459,105.621 268.747,105.725 266.970 C 105.829 265.194,106.194 262.764,106.535 261.570 C 106.876 260.377,107.420 258.140,107.743 256.600 C 108.066 255.060,108.808 252.000,109.392 249.800 C 109.977 247.600,110.706 244.447,111.012 242.793 C 111.319 241.139,111.847 239.001,112.185 238.042 C 113.007 235.714,112.970 235.317,111.800 233.927 C 111.158 233.164,110.800 232.247,110.800 231.364 C 110.800 230.608,110.646 229.677,110.459 229.295 C 110.051 228.465,109.089 226.253,108.427 224.626 C 108.125 223.882,107.810 218.822,107.570 210.826 C 107.361 203.882,107.012 197.432,106.795 196.494 C 106.578 195.556,106.400 192.541,106.400 189.794 C 106.400 185.850,106.286 184.800,105.856 184.800 C 104.420 184.800,92.926 186.044,92.400 186.257 C 89.629 187.375,74.853 188.357,72.200 187.598 C 65.749 185.753,62.690 184.387,58.738 181.584 C 54.750 178.757,50.628 173.368,47.474 166.858 C 46.157 164.140,44.657 161.493,44.140 160.976 C 43.623 160.459,43.200 159.560,43.200 158.979 C 43.200 158.397,42.939 157.354,42.619 156.660 C 38.815 148.399,40.256 130.364,45.541 120.100 C 48.211 114.915,54.334 107.536,57.267 105.970 C 57.853 105.656,59.113 104.858,60.067 104.195 C 63.998 101.463,76.030 96.777,85.000 94.485 C 100.050 90.639,110.024 84.658,116.400 75.659 C 117.390 74.262,118.608 72.612,119.107 71.994 C 121.657 68.829,125.022 60.842,126.519 54.400 C 127.318 50.962,129.409 45.349,130.542 43.600 C 133.780 38.604,134.911 37.172,137.975 34.188 C 145.461 26.898,155.075 21.330,165.200 18.422 C 166.850 17.948,168.740 17.369,169.400 17.136 C 170.596 16.714,175.640 15.577,180.200 14.701 C 183.498 14.068,209.031 14.064,212.000 14.695 C 213.210 14.953,215.640 15.440,217.400 15.778 C 219.160 16.116,221.410 16.662,222.400 16.992 C 223.390 17.321,226.000 18.140,228.200 18.812 C 237.602 21.681,248.792 28.372,255.034 34.856 C 257.526 37.444,260.800 41.620,260.800 42.210 C 260.800 42.324,261.275 43.135,261.856 44.013 C 262.437 44.891,263.355 46.912,263.896 48.505 C 264.905 51.478,264.977 51.746,266.353 57.691 C 267.834 64.089,272.981 73.037,279.254 80.119 C 282.132 83.368,287.983 87.236,294.400 90.132 C 298.876 92.152,301.606 93.065,307.000 94.342 C 307.880 94.551,309.140 94.908,309.800 95.137 C 310.460 95.365,312.350 95.953,314.000 96.444 C 325.951 99.999,333.012 103.772,339.034 109.822 C 343.853 114.662,348.400 122.614,348.400 126.199 C 348.400 127.134,348.672 128.669,349.004 129.610 C 349.336 130.551,349.710 132.329,349.835 133.561 C 349.960 134.792,350.244 136.177,350.465 136.637 C 351.361 138.500,350.038 147.939,348.227 152.600 C 347.629 154.140,346.801 156.424,346.388 157.675 C 345.975 158.927,345.454 160.277,345.229 160.675 C 345.005 161.074,344.555 162.300,344.230 163.400 C 342.160 170.402,341.072 172.199,335.644 177.589 C 326.462 186.706,319.993 188.174,301.200 185.404 C 293.266 184.235,292.597 184.191,289.149 184.615 C 286.354 184.958,286.311 185.068,285.366 194.400 C 284.998 198.030,284.550 201.284,284.371 201.631 C 284.193 201.977,283.936 204.137,283.801 206.431 C 283.666 208.724,283.220 212.220,282.810 214.200 C 282.400 216.180,281.866 218.880,281.623 220.200 C 281.380 221.520,280.805 224.580,280.344 227.000 C 279.327 232.338,279.327 232.365,280.340 237.600 C 282.278 247.612,282.866 250.822,283.420 254.400 C 283.743 256.490,284.195 258.634,284.424 259.164 C 286.255 263.398,285.177 272.373,282.537 274.878 C 275.978 281.100,268.058 277.548,265.414 267.200 C 263.648 260.288,263.909 260.405,259.158 264.400 C 257.196 266.050,253.388 269.233,250.695 271.472 C 248.003 273.712,245.260 276.004,244.600 276.566 C 243.940 277.127,242.905 277.963,242.300 278.422 C 239.612 280.465,243.668 284.446,249.595 285.581 C 251.022 285.854,252.642 286.306,253.195 286.585 C 253.748 286.865,254.920 287.222,255.800 287.379 C 256.680 287.536,259.830 288.386,262.800 289.268 C 265.770 290.150,269.190 291.155,270.400 291.501 C 271.610 291.848,272.780 292.249,273.000 292.394 C 273.220 292.538,274.210 292.890,275.200 293.177 C 281.500 295.000,285.104 296.563,285.533 297.660 C 285.894 298.579,288.995 295.603,321.797 262.859 L 357.000 227.719 359.263 227.204 C 364.739 225.960,369.600 229.994,369.600 235.784 C 369.600 238.561,368.525 239.720,333.222 274.999 C 302.008 306.192,297.567 310.800,298.714 310.800 C 299.297 310.800,300.400 313.115,300.400 314.339 C 300.400 315.573,301.768 318.354,302.642 318.898 C 303.062 319.159,308.638 323.502,310.468 324.993 C 310.836 325.293,311.471 325.717,311.880 325.936 C 312.289 326.155,313.487 327.923,314.543 329.867 C 315.598 331.810,317.064 334.276,317.800 335.347 C 319.629 338.010,321.200 345.102,321.200 350.692 C 321.200 353.571,321.343 353.907,323.701 356.565 C 326.664 359.905,332.800 367.206,332.800 367.392 C 332.800 367.517,334.608 369.730,336.818 372.310 C 339.028 374.889,341.438 377.720,342.174 378.600 C 342.910 379.480,344.805 381.730,346.387 383.600 C 347.968 385.470,349.703 387.540,350.242 388.200 C 350.781 388.860,352.770 391.200,354.662 393.400 C 356.553 395.600,358.484 397.983,358.951 398.695 L 359.800 399.990 379.900 399.995 L 400.000 400.000 400.000 200.000 L 400.000 0.000 200.000 0.000 L 0.000 0.000 0.000 200.000 M128.800 141.983 C 128.470 142.206,127.686 142.391,127.058 142.394 C 120.413 142.430,112.638 152.336,112.612 160.800 C 112.587 168.690,121.702 182.800,126.824 182.800 C 128.147 182.800,131.393 184.924,137.064 189.500 C 139.313 191.315,141.264 192.800,141.400 192.800 C 141.536 192.800,143.122 194.020,144.924 195.510 C 146.726 197.001,148.650 198.506,149.200 198.855 C 149.750 199.204,151.594 200.640,153.297 202.045 C 155.000 203.450,157.926 205.770,159.798 207.200 C 163.115 209.734,169.542 214.758,175.600 219.553 C 182.301 224.857,183.922 225.681,189.600 226.671 C 195.267 227.659,198.978 227.772,201.534 227.034 C 205.336 225.938,207.111 224.884,214.397 219.400 C 216.151 218.080,219.038 215.920,220.814 214.600 C 225.586 211.053,230.192 207.585,233.800 204.822 C 235.560 203.474,238.890 200.946,241.200 199.203 C 243.510 197.461,245.850 195.693,246.400 195.275 C 246.950 194.857,249.830 192.695,252.800 190.471 C 255.770 188.247,258.380 186.286,258.600 186.114 C 260.113 184.928,264.046 182.032,265.274 181.200 C 282.234 169.715,283.466 152.286,267.881 144.311 L 264.600 142.632 259.600 142.649 C 253.862 142.669,252.674 143.090,246.600 147.262 C 241.305 150.898,230.977 155.690,222.800 158.304 C 215.804 160.540,214.747 160.802,210.000 161.469 C 207.690 161.794,204.900 162.239,203.800 162.459 C 199.840 163.248,184.340 162.452,178.600 161.164 C 177.500 160.917,175.520 160.484,174.200 160.202 C 172.880 159.919,171.260 159.502,170.600 159.275 C 169.940 159.047,168.500 158.585,167.400 158.246 C 163.376 157.009,159.729 155.653,156.730 154.279 C 155.042 153.506,153.252 152.744,152.753 152.585 C 151.624 152.227,148.456 150.041,145.746 147.752 C 140.652 143.448,131.330 140.275,128.800 141.983 M128.649 252.320 C 128.503 252.556,128.033 254.426,127.604 256.475 C 127.174 258.524,126.440 261.640,125.972 263.400 C 125.504 265.160,124.865 267.754,124.553 269.165 C 123.253 275.040,117.470 279.300,113.067 277.626 C 112.525 277.420,111.967 277.366,111.827 277.507 C 111.487 277.847,124.040 290.400,124.720 290.400 C 125.011 290.400,126.094 290.152,127.125 289.849 C 128.156 289.546,129.810 289.089,130.800 288.834 C 139.782 286.516,140.123 286.402,140.732 285.511 C 141.516 284.364,146.857 279.150,147.855 278.557 C 149.145 277.790,148.886 277.096,145.905 273.341 C 144.307 271.329,142.640 269.181,142.200 268.568 C 141.760 267.954,139.469 265.303,137.110 262.676 C 134.750 260.049,132.284 256.977,131.628 255.850 C 129.959 252.978,128.968 251.804,128.649 252.320 M77.360 381.914 C 75.631 383.831,73.019 386.600,71.556 388.066 C 68.384 391.245,62.400 398.822,62.400 399.659 C 62.400 399.847,73.620 400.000,87.334 400.000 L 112.268 400.000 112.889 397.900 C 113.230 396.745,114.186 393.862,115.014 391.493 C 116.773 386.461,116.766 386.440,113.503 387.436 C 104.454 390.199,91.212 387.377,84.143 381.180 C 80.526 378.010,80.920 377.967,77.360 381.914 M303.861 381.588 C 302.354 382.639,300.284 383.866,299.261 384.314 C 295.340 386.029,293.222 386.800,292.435 386.800 C 291.986 386.800,291.321 387.254,290.957 387.809 C 290.206 388.956,290.082 388.712,295.200 396.191 L 297.800 399.990 312.700 399.995 C 320.895 399.998,327.600 399.864,327.600 399.697 C 327.600 398.865,307.364 379.428,306.716 379.638 C 306.652 379.658,305.367 380.536,303.861 381.588 " stroke="none" fill="transparent" fill-rule="evenodd"></path></g></svg>